# xmcd CD database file
#
# Track frame offsets:
#	150
#	35269
#	49787
#	59856
#	79357
#	109092
#	122246
#	135938
#	149528
#	162998
#	176618
#	187701
#	201166
#	212733
#	225286
#	235179
#	251559
#	263446
#	275838
#	287958
#
# Disc length: 3969 seconds
#
# Revision: 0
# Processed by: cddbd v1.5.1PL0 Copyright (c) Steve Scherf et al.
# Submitted via: CDex 1.51
#
DISCID=280f7f14
DTITLE=SKALÄRmusiken - Mera SMusK!!!
DYEAR=1900
DGENRE=Jazz
TTITLE0=CD-ROM! Spela inte detta spår! CD-ROM! Bitte Nicht Abspielen! Achtung!
TTITLE1=Hillaballoo
TTITLE2=Mucho Gusto
TTITLE3=I en sal på lasarettet
TTITLE4=Under blågul fara
TTITLE5=Jumpin' at the Jubilee
TTITLE6=King Porter Stomp
TTITLE7=Tarzan of Harlem
TTITLE8=Doin' the Jive
TTITLE9=Work Baby Work
TTITLE10=Helmi
TTITLE11=Õige valik (Right choice)
TTITLE12=Puhkus Viljandis (Vacation in Viljandi)
TTITLE13=Peagi saabun tagasi (Soon I'll return to you)
TTITLE14=Laul (Song)
TTITLE15=Ära eksi sammuga (Don't mistake on the step)
TTITLE16=The midnight sun never sets
TTITLE17=Aint misbehavin'
TTITLE18=B-blues
TTITLE19=Satin Doll
EXTD=
EXTT0=
EXTT1=
EXTT2=
EXTT3=
EXTT4=
EXTT5=
EXTT6=
EXTT7=
EXTT8=
EXTT9=
EXTT10=
EXTT11=
EXTT12=
EXTT13=
EXTT14=
EXTT15=
EXTT16=
EXTT17=
EXTT18=
EXTT19=
PLAYORDER=
